Coordinates
version=1
nRows=16
nColumns=40
inDegrees=yes

Units are S.I. units (second, meters, Newtons, ...)
If the header above contains a line with 'inDegrees', this indicates whether rotational values are in degrees (yes) or radians (no).

endheader
time	pelvis_tilt	pelvis_list	pelvis_rotation	pelvis_tx	pelvis_ty	pelvis_tz	hip_flexion_r	hip_adduction_r	hip_rotation_r	knee_angle_r	knee_angle_r_beta	ankle_angle_r	subtalar_angle_r	mtp_angle_r	hip_flexion_l	hip_adduction_l	hip_rotation_l	knee_angle_l	knee_angle_l_beta	ankle_angle_l	subtalar_angle_l	mtp_angle_l	lumbar_extension	lumbar_bending	lumbar_rotation	arm_flex_r	arm_add_r	arm_rot_r	elbow_flex_r	pro_sup_r	wrist_flex_r	wrist_dev_r	arm_flex_l	arm_add_l	arm_rot_l	elbow_flex_l	pro_sup_l	wrist_flex_l	wrist_dev_l
      4.29000000	    -12.23301242	      2.21870273	    -15.95964974	     -0.36117509	      0.90821602	     -0.87186366	     41.38410453	    -10.07306200	      1.80856920	     52.42549553	      0.91499751	     27.30356531	      0.00000000	      0.00000000	     33.62938777	    -25.99445341	    -18.79102163	     51.67308867	      0.90186553	     23.47997821	      0.00000000	      0.00000000	    -20.89305035	      2.75936562	     -0.05348427	    -58.00038055	    -27.49781301	     -6.02092040	    121.70853414	     87.96542405	      0.00000000	      0.00000000	    -13.23998636	    -64.67779414	     58.22110056	    109.34272130	     88.12432534	      0.00000000	      0.00000000
      4.29500000	    -12.84613174	      2.31273540	    -16.15289877	     -0.36744827	      0.89333690	     -0.87204172	     44.89574245	     -9.72368040	      3.03817014	     56.64189784	      0.98858761	     27.11940158	      0.00000000	      0.00000000	     37.35870812	    -27.12589339	    -16.93564188	     56.22730156	      0.98135154	     23.88817876	      0.00000000	      0.00000000	    -21.30286212	      2.56967368	      0.37471950	    -57.53844246	    -27.45339814	     -6.33596746	    121.79308192	     87.92093205	      0.00000000	      0.00000000	    -12.75074340	    -64.86769576	     58.24767680	    109.57290969	     88.09967167	      0.00000000	      0.00000000
      4.30000000	    -13.42358543	      2.11060277	    -16.09227135	     -0.37307754	      0.87906738	     -0.87234631	     47.92903366	     -9.23259926	      3.79776648	     60.32023717	      1.05278674	     27.01320934	      0.00000000	      0.00000000	     40.99380343	    -28.13336940	    -14.71201136	     60.30543793	      1.05252845	     24.34282041	      0.00000000	      0.00000000	    -21.74886428	      2.75342633	      0.71624447	    -57.17285109	    -27.45526405	     -6.53394347	    121.83762360	     87.93450920	      0.00000000	      0.00000000	    -11.86147953	    -64.86656285	     58.87411642	    109.55494615	     88.13490481	      0.00000000	      0.00000000
      4.30500000	    -13.92705452	      1.96359722	    -16.16246876	     -0.37844988	      0.86519796	     -0.87234157	     50.77999367	     -8.70090440	      4.45604592	     63.93903368	      1.11594666	     27.62056148	      0.00000000	      0.00000000	     44.29855186	    -29.13635069	    -13.02457185	     64.15887579	      1.11978363	     24.65710285	      0.00000000	      0.00000000	    -22.13811851	      2.81945721	      2.23789331	    -57.65966270	    -26.28247656	     -7.68082925	    121.83262830	     87.95889372	      0.00000000	      0.00000000	     -6.23719120	    -65.15444392	     64.31089715	    109.45425050	     88.13340734	      0.00000000	      0.00000000
      4.31000000	    -14.68883456	      1.83701601	    -15.78282258	     -0.38262757	      0.85103241	     -0.87274039	     53.61650477	     -8.69202439	      4.29763418	     67.32233484	      1.17499640	     28.11182618	      0.00000000	      0.00000000	     47.74269814	    -29.67760424	    -11.06537942	     67.53053865	      1.17863025	     25.35504684	      0.00000000	      0.00000000	    -22.19176818	      3.07133767	      2.22028874	    -57.37289179	    -26.39751154	     -7.63886366	    121.85146517	     87.97114416	      0.00000000	      0.00000000	     -5.82141779	    -65.03497006	     64.60411264	    109.19200617	     88.12689681	      0.00000000	      0.00000000
      4.31500000	    -15.35616127	      2.10643217	    -15.52907711	     -0.38625045	      0.83711343	     -0.87299218	     56.29499874	     -8.91032317	      4.48025515	     70.38963766	      1.22853094	     28.77050212	      0.00000000	      0.00000000	     50.57790221	    -29.91828754	     -9.87223774	     70.41428356	      1.22896109	     26.22627637	      0.00000000	      0.00000000	    -22.19301501	      2.82978041	      2.12553267	    -57.07788390	    -26.51258161	     -7.43261503	    121.67052939	     87.94910809	      0.00000000	      0.00000000	     -5.59064966	    -64.92121971	     64.94084729	    108.95560192	     88.11810087	      0.00000000	      0.00000000
      4.32000000	    -16.00406110	      1.70067100	    -14.95289684	     -0.38924903	      0.82402914	     -0.87347559	     58.25388704	     -9.08948356	      3.73254911	     72.96887000	      1.27354703	     29.57184887	      0.00000000	      0.00000000	     53.42869970	    -30.37879686	     -8.03899156	     73.05342119	      1.27502273	     27.06461540	      0.00000000	      0.00000000	    -22.37276657	      3.37953121	      1.98262580	    -56.81181914	    -26.85362420	     -7.22107878	    121.54203556	     88.00118471	      0.00000000	      0.00000000	     -4.99452723	    -64.66668889	     65.68603302	    108.56539252	     88.14353926	      0.00000000	      0.00000000
      4.32500000	    -16.49794243	      1.88995192	    -14.36479298	     -0.39180044	      0.81108485	     -0.87449736	     60.18798695	     -9.83624085	      3.57448958	     75.43719102	      1.31662736	     30.72502887	      0.00000000	      0.00000000	     55.69034995	    -30.27543212	     -6.99650114	     75.30361954	      1.31429610	     28.33947168	      0.00000000	      0.00000000	    -22.47997100	      3.33762000	      1.52827593	    -56.56585517	    -27.27122362	     -6.96882874	    121.49270197	     87.99910124	      0.00000000	      0.00000000	     -4.69662496	    -64.55090976	     66.28811026	    108.31357336	     88.13743286	      0.00000000	      0.00000000
      4.33000000	    -16.89883894	      2.10267340	    -13.75502561	     -0.39400842	      0.79839964	     -0.87573475	     61.91268251	    -10.79857281	      3.37354788	     77.75541709	      1.35708804	     31.88321684	      0.00000000	      0.00000000	     57.64035548	    -30.10704143	     -6.18945417	     77.36197683	      1.35022121	     29.70536356	      0.00000000	      0.00000000	    -22.63582775	      3.29895758	      1.00637256	    -56.48037502	    -27.91789203	     -6.65488984	    121.60491308	     87.99984626	      0.00000000	      0.00000000	     -4.45844619	    -64.43857585	     66.87438306	    108.12458179	     88.12497911	      0.00000000	      0.00000000
      4.33500000	    -17.40649830	      2.08896736	    -12.95714827	     -0.39593768	      0.78611694	     -0.87720464	     63.50524266	    -11.76321495	      3.00189157	     79.89734701	      1.39447177	     32.78977084	      0.00000000	      0.00000000	     59.78825703	    -29.76968352	     -4.87934237	     79.27607923	      1.38362860	     30.85625568	      0.00000000	      0.00000000	    -22.66364750	      3.57707566	      0.38375348	    -56.21680523	    -28.66352882	     -6.25086761	    121.51346336	     88.04631024	      0.00000000	      0.00000000	     -3.89878222	    -64.21113527	     67.90260437	    107.82516006	     88.14812380	      0.00000000	      0.00000000
      4.34000000	    -17.86140756	      2.67752190	    -12.32117130	     -0.39809189	      0.77353450	     -0.87886548	     65.44151357	    -13.04001993	      3.23167985	     82.06180503	      1.43224869	     33.85238836	      0.00000000	      0.00000000	     61.52255856	    -29.14904909	     -4.41425128	     81.08459827	      1.41519321	     32.13880272	      0.00000000	      0.00000000	    -22.56822926	      3.22774510	     -0.28879417	    -56.24284347	    -29.44852881	     -5.94827496	    121.95144076	     88.01893366	      0.00000000	      0.00000000	     -3.56607635	    -64.19760319	     68.62288811	    107.81423322	     88.12917092	      0.00000000	      0.00000000
      4.34500000	    -18.05943799	      2.34897716	    -11.72146981	     -0.39957751	      0.76250628	     -0.87959370	     66.42233019	    -13.76710332	      2.59773586	     83.89770029	      1.46429110	     34.92106322	      0.00000000	      0.00000000	     63.17338277	    -29.11410274	     -3.12740843	     82.84978638	      1.44600156	     33.29583527	      0.00000000	      0.00000000	    -22.84217460	      3.69466521	      0.58998058	    -56.98718111	    -29.03398620	     -6.40132236	    122.07161661	     88.05045921	      0.00000000	      0.00000000	      2.12429004	    -64.06162768	     74.88805701	    107.49235490	     88.14187666	      0.00000000	      0.00000000
      4.35000000	    -18.53227439	      2.99042188	    -11.50414259	     -0.40162222	      0.74998587	     -0.88020848	     68.45434213	    -14.50941831	      3.27189705	     85.96695107	      1.50040634	     35.93649096	      0.00000000	      0.00000000	     64.79863914	    -28.89495276	     -2.96127616	     84.72001675	      1.47864323	     34.44659284	      0.00000000	      0.00000000	    -22.61900719	      3.12140637	      0.25920976	    -57.08641952	    -29.88987299	     -5.95754267	    122.50957368	     88.03649651	      0.00000000	      0.00000000	      2.16819655	    -64.14859486	     75.30315807	    107.69398692	     88.11299829	      0.00000000	      0.00000000
      4.35500000	    -18.51625466	      2.83893159	    -11.05346673	     -0.40315705	      0.73990555	     -0.88045290	     69.31596541	    -15.03333320	      3.18605379	     87.70376509	      1.53071947	     36.83610245	      0.00000000	      0.00000000	     66.13432445	    -28.81642502	     -1.94702697	     86.40849547	      1.50811275	     35.21374192	      0.00000000	      0.00000000	    -23.13818582	      3.25052429	     -0.06856494	    -56.65313597	    -30.92636309	     -5.25547923	    122.54473384	     88.05439216	      0.00000000	      0.00000000	      2.58295697	    -64.14938145	     75.92556251	    107.73291152	     88.15051628	      0.00000000	      0.00000000
      4.36000000	    -18.61211223	      3.25978765	    -10.99582246	     -0.40498206	      0.72907291	     -0.88042542	     70.83757653	    -15.31279841	      4.01825199	     89.61449379	      1.56406797	     37.55700564	      0.00000000	      0.00000000	     67.35874903	    -28.84457880	     -1.69131389	     88.16090575	      1.53869808	     35.87569661	      0.00000000	      0.00000000	    -23.38548164	      2.71220362	     -0.09385497	    -56.58318552	    -31.73772839	     -4.75462790	    122.77034210	     88.04913055	      0.00000000	      0.00000000	      3.03236664	    -64.36376519	     76.44611136	    107.93789544	     88.13789535	      0.00000000	      0.00000000
      4.36500000	    -18.49164774	      3.39497812	    -10.87647847	     -0.40610135	      0.71872729	     -0.88030789	     71.95547556	    -15.54110696	      4.57792811	     91.54634070	      1.59778506	     38.15634288	      0.00000000	      0.00000000	     68.46192140	    -28.98189045	     -1.15198106	     89.95676815	      1.57004179	     36.35272717	      0.00000000	      0.00000000	    -23.87606508	      2.46187115	     -0.02327724	    -56.70424679	    -32.54455762	     -4.42586172	    123.10308874	     88.05589049	      0.00000000	      0.00000000	      3.35940496	    -64.49566892	     76.84368525	    108.14733009	     88.15315918	      0.00000000	      0.00000000
